<svg xmlns="http://www.w3.org/2000/svg" id="Calque_1" width="971.3" height="541.3" viewBox="0 0 971.3 541.3"><defs><style>      .st0 {        fill: #000;      }    </style></defs><g><path class="st0" d="M68.6,228.3c-23.3,0-42.3,19-42.3,42.3s19,42.3,42.3,42.3,42.3-19,42.3-42.3-19-42.3-42.3-42.3Z"></path><path class="st0" d="M221.9,228.3c-23.3,0-42.3,19-42.3,42.3,0,23.3,19,42.3,42.3,42.3,23.3,0,42.3-19,42.3-42.3,0-23.3-19-42.3-42.3-42.3Z"></path><path class="st0" d="M375.3,228.3c-23.3,0-42.3,19-42.3,42.3s19,42.3,42.3,42.3,42.3-19,42.3-42.3-19-42.3-42.3-42.3Z"></path><path class="st0" d="M264.2,117.3c0-23.3-19-42.3-42.3-42.3s-42.3,19-42.3,42.3,19,42.3,42.3,42.3,42.3-19,42.3-42.3Z"></path><path class="st0" d="M110.9,424c0-23.3-19-42.3-42.3-42.3s-42.3,19-42.3,42.3,19,42.3,42.3,42.3,42.3-19,42.3-42.3Z"></path><path class="st0" d="M417.6,424c0-23.3-19-42.3-42.3-42.3s-42.3,19-42.3,42.3,19,42.3,42.3,42.3,42.3-19,42.3-42.3Z"></path></g><g><path class="st0" d="M596,228.3c-23.3,0-42.3,19-42.3,42.3s19,42.3,42.3,42.3,42.3-19,42.3-42.3-19-42.3-42.3-42.3Z"></path><path class="st0" d="M749.4,228.3c-23.3,0-42.3,19-42.3,42.3,0,23.3,19,42.3,42.3,42.3s42.3-19,42.3-42.3c0-23.3-19-42.3-42.3-42.3Z"></path><path class="st0" d="M791.7,117.3c0-23.3-19-42.3-42.3-42.3s-42.3,19-42.3,42.3,19,42.3,42.3,42.3,42.3-19,42.3-42.3Z"></path><path class="st0" d="M638.3,117.3c0-23.3-19-42.3-42.3-42.3s-42.3,19-42.3,42.3,19,42.3,42.3,42.3,42.3-19,42.3-42.3Z"></path><path class="st0" d="M638.3,424c0-23.3-19-42.3-42.3-42.3s-42.3,19-42.3,42.3,19,42.3,42.3,42.3,42.3-19,42.3-42.3Z"></path><path class="st0" d="M945,117.3c0-23.3-19-42.3-42.3-42.3s-42.3,19-42.3,42.3,19,42.3,42.3,42.3,42.3-19,42.3-42.3Z"></path></g></svg>