<svg xmlns="http://www.w3.org/2000/svg" width="464" height="188">
<defs>
</defs>

<path d="M196.702,61.9855 C199.613,54.6282 206.512,60.4206 213.121,56.2116 C216.365,54.1453 217.71,50.0351 216.543,47.0238 C213.253,38.5268 201.689,44.0538 200.107,40.2031 C198.868,37.1855 197.49,34.6613 194.475,34.9247 C191.978,35.1429 190.072,38.0485 190.387,40.0721 C190.898,43.3536 194.178,44.1782 196.89,44.2879 C198.612,47.8561 197.646,53.1428 197.483,57.2549 C193.072,56.8927 190.557,58.9071 190.176,62.1482 C190.008,63.5733 190.918,65.0784 191.63,65.9262 C192.807,67.3281 195.554,67.1444 197.414,67.6366 C197.414,67.6366 197.888,87.0016 197.888,87.0016 C197.888,87.0016 185.974,86.9764 185.974,86.9764 C185.974,86.9764 186.054,32.0124 186.054,32.0124 C186.054,32.0124 213.542,32.3927 213.542,32.3927 C221.233,32.4991 227.174,37.7253 228.025,44.5406 C229.006,52.3983 225.704,58.942 217.191,61.9877 C223.464,63.6882 226.551,67.3589 227.299,72.9565 C227.299,72.9565 229.172,86.9688 229.172,86.9688 C229.172,86.9688 217.297,87.0227 217.297,87.0227 C216.936,81.9005 216.776,77.2522 215.331,72.6881 C212.179,62.7375 196.611,71.4926 196.702,61.9855 Z " fill="rgb(31,31,29)"/>
<path d="M333.209,69.0141 C331.539,67.6991 331.155,63.0914 333.988,62.9484 C333.988,62.9484 347.953,62.2434 347.953,62.2434 C348.019,56.8268 345.041,53.8782 340.577,53.6677 C335.959,53.4499 333.022,57.3081 331.802,61.8444 C329.821,61.9818 326.884,62.2695 326.199,64.6227 C325.633,66.5706 326.382,69.3077 329.102,69.6594 C329.102,69.6594 332.398,70.1656 332.398,70.1656 C332.395,73.4742 333.537,77.2149 336.901,79.0678 C339.426,80.4582 342.027,80.3125 344.491,79.1634 C345.935,78.4897 347.102,75.9047 348.096,74.1185 C348.096,74.1185 359.473,73.9499 359.473,73.9499 C358.735,80.5767 354.505,85.4786 347.997,87.2468 C340.689,89.2327 331.562,89.0018 325.89,83.0052 C318.444,75.1347 318.285,62.2311 324.6,53.3136 C331.418,43.6869 347.138,43.0022 354.91,51.8466 C359.402,56.9588 359.561,63.4574 359.603,69.9156 C359.603,69.9156 333.209,69.0141 333.209,69.0141 Z " fill="rgb(29,29,27)"/>
<path d="M246.648,64.9642 C247.384,64.2519 247.925,62.657 249.783,62.5896 C249.783,62.5896 262.081,62.1433 262.081,62.1433 C262.376,58.852 260.911,55.2819 258.06,54.2516 C255.086,53.1766 252.569,53.5355 249.825,55.1599 C248.077,56.1945 247.555,59.6107 245.561,61.5449 C243.981,62.3181 240.228,62.1388 240.066,65.1767 C239.996,66.4776 240.098,67.6575 240.993,68.5671 C242.233,69.8284 243.853,70.3074 246.156,70.001 C246.635,75.1317 248.837,79.473 253.895,80.0706 C258.301,80.5911 261.565,78.5462 262.209,74.0247 C262.209,74.0247 273.784,73.9379 273.784,73.9379 C272.867,82.9273 265.308,87.666 257.005,88.2761 C250.578,88.7483 244.775,87.4121 240.445,83.1571 C233.037,75.878 232.703,59.525 240.123,51.5498 C247.941,43.146 265.297,43.3517 271.211,54.8514 C273.58,59.4599 274.307,64.6466 273.924,69.756 C273.924,69.756 250.977,69.7872 250.977,69.7872 C249.635,69.7891 248.347,69.3474 247.639,68.7434 C246.666,67.9137 246.31,66.3015 246.648,64.9642 Z " fill="rgb(30,30,28)"/>
<path d="M96.7851,65.008 C97.5869,63.7426 98.5784,62.5715 100.66,62.5184 C100.66,62.5184 112.318,62.2208 112.318,62.2208 C112.633,59.051 111.57,56.9223 110.014,55.3986 C108.021,53.4469 104.966,53.2905 101.948,54.1714 C98.6722,55.1275 97.4652,59.239 95.9666,61.7059 C94.8002,61.9241 92.2808,61.8165 91.5402,62.8283 C90.9743,63.6014 90.3654,64.7138 90.2927,66.0215 C90.1092,69.3191 93.0273,69.7403 96.093,70.8355 C96.9725,74.6552 99.416,79.2258 102.669,79.8601 C107.79,80.8585 111.535,79.1494 112.89,74.0266 C112.89,74.0266 123.825,73.9186 123.825,73.9186 C122.63,83.8535 114.079,88.1225 105.007,88.1819 C95.2953,88.2454 87.4324,83.0016 85.5876,73.2138 C84.9079,69.6075 84.8787,65.3567 85.5162,61.7482 C87.275,51.7937 95.0638,45.7022 105.002,45.6732 C114.674,45.645 122.132,51.6113 123.653,61.3804 C124.068,64.046 124.152,66.8955 123.859,69.7664 C110.651,69.082 95.9257,72.4918 96.7851,65.008 Z " fill="rgb(31,31,29)"/>
<path d="M90.4344,146.927 C85.0514,152.929 75.5869,154.494 68.8675,149.163 C65.26,146.301 64.3835,141.326 65.3774,137.08 C66.3184,133.059 69.5715,129.311 74.4539,128.493 C74.4539,128.493 87.2016,126.357 87.2016,126.357 C88.7992,126.089 89.8138,125.072 90.358,123.727 C90.8329,122.553 90.7226,120.963 89.3624,119.586 C87.3747,117.575 84.7322,117.669 81.7244,118.156 C79.8324,118.463 78.4942,121.672 77.0994,123.005 C73.817,124.177 69.3148,123.224 66.2932,123.044 C67.9036,112.243 78.7478,108.374 89.6321,110.349 C97.1996,111.723 101.859,117.245 101.925,125.032 C101.925,125.032 102.085,143.984 102.085,143.984 C102.108,146.623 102.568,148.641 103.985,151.039 C103.985,151.039 92.8273,151.106 92.8273,151.106 C91.972,151.111 90.9288,149.285 90.4344,146.927 Z M83.6445,144.075 C88.5288,143.406 90.6297,139.297 91.1766,134.934 C91.3366,133.657 93.7338,133.674 94.5652,133.553 C97.8041,133.081 99.0579,130.317 97.963,127.588 C97.1237,125.496 94.3775,124.257 92.0433,125.545 C90.0917,126.621 89.4653,129.203 89.9236,131.775 C83.1048,134.506 75.1632,133.907 76.8172,140.49 C77.4137,142.864 79.8821,144.591 83.6445,144.075 Z " fill="rgb(31,31,29)"/>
<path d="M288.607,140.274 C287.279,152.444 270.46,155.362 258.869,150.266 C254.045,148.145 251.374,143.512 251.394,138.79 C251.394,138.79 263.506,138.915 263.506,138.915 C264.134,144.09 269.082,145.38 273.295,144.295 C275.331,143.771 276.749,142.305 276.786,140.488 C276.94,133.041 250.953,138.64 252.081,122.538 C252.337,118.889 254.076,115.071 257.925,112.738 C264.029,109.039 271.951,108.854 278.908,111.176 C284.154,112.926 287.481,117.491 288,122.941 C288,122.941 276.068,123.005 276.068,123.005 C275.593,118.604 272.075,116.917 267.959,117.757 C265.812,118.194 264.089,119.69 264,121.52 C263.635,128.997 290.496,122.968 288.607,140.274 Z M269.075,127.685 C266.669,128.905 266.578,131.437 267.61,132.825 C268.729,134.328 270.466,134.875 272.39,133.917 C273.687,133.271 274.844,131.117 273.532,129.071 C272.841,127.993 271.384,126.514 269.075,127.685 Z " fill="rgb(29,29,27)"/>
<path d="M219.823,150.931 C216.397,151.844 212.858,151.39 208.286,151.343 C208.286,151.343 208.157,110.978 208.157,110.978 C208.157,110.978 218.5,110.931 218.5,110.931 C220.697,119.235 211.074,113.524 210.494,120.015 C210.294,122.258 212.128,123.923 213.646,124.223 C221.067,125.692 216.942,108.516 232.526,109.673 C239.407,110.183 244.407,115.421 244.415,123.057 C244.415,123.057 244.443,151.254 244.443,151.254 C244.443,151.254 232.895,151.287 232.895,151.287 C232.895,151.287 232.617,123.278 232.617,123.278 C232.585,120.024 229.199,118.418 226.532,118.653 C223.895,118.886 220.443,120.983 220.371,124.465 C220.371,124.465 219.823,150.931 219.823,150.931 Z " fill="rgb(29,29,27)"/>
<path d="M196.852,144.559 C189.468,155.407 172.446,155.284 164.957,145.126 C158.838,136.827 158.97,124.344 165.49,116.406 C173.249,106.961 189.45,107.294 196.62,117.261 C202.153,124.953 202.503,136.258 196.852,144.559 Z M187.145,139.654 C189.494,134.095 189.385,127.921 187.242,122.856 C185.867,119.604 182.665,118.317 179.545,118.731 C172.931,119.611 171.088,129.983 173.697,138.219 C174.655,141.24 177.042,143.199 179.888,143.546 C182.276,143.838 185.738,142.985 187.145,139.654 Z M165.303,127.37 C162.986,128.383 161.985,131.013 163.258,133.293 C164.132,134.86 166.66,135.956 168.92,134.559 C170.507,133.58 171.546,131.329 170.379,129.229 C169.496,127.639 167.413,126.447 165.303,127.37 Z M193.284,127.371 C190.998,128.34 189.898,130.968 191.21,133.298 C192.055,134.799 194.492,136.006 196.886,134.56 C198.461,133.608 199.346,131.474 198.274,129.347 C197.429,127.673 195.546,126.412 193.284,127.371 Z " fill="rgb(29,29,27)"/>
<path d="M161.838,84.5625 C154.694,89.4425 144.817,89.1117 137.316,85.7941 C132.809,83.8013 130.161,79.9164 130.132,75.0441 C130.132,75.0441 141.71,75.0117 141.71,75.0117 C142.303,78.3798 144.518,79.7454 147.072,80.4743 C149.446,81.1519 153.36,80.5256 154.799,78.0496 C159.323,70.2656 140.862,73.0732 133.66,66.3661 C130.18,63.1254 130.019,58.0925 131.918,53.6438 C134.913,46.6288 145.652,44.6349 154.617,46.4144 C160.956,47.6727 165.699,52.3614 165.924,58.6802 C165.924,58.6802 154.894,58.8709 154.894,58.8709 C154.085,55.6612 152.053,53.7384 149.305,53.2112 C146.679,52.7076 142.846,53.9922 142.204,56.9896 C141.612,59.7559 144.62,61.0369 146.563,61.449 C146.563,61.449 157.212,63.7081 157.212,63.7081 C161.991,64.7218 165.642,67.7448 166.583,72.0958 C167.478,76.2322 166.21,81.576 161.838,84.5625 Z M147.286,63.3687 C144.798,64.515 144.601,67.14 145.823,68.6544 C147.198,70.3574 149.246,70.7892 151.122,69.615 C152.6,68.6893 152.913,66.6925 152.318,65.2757 C151.388,63.0567 149.459,62.3676 147.286,63.3687 Z " fill="rgb(30,30,28)"/>
<path d="M59.4992,77.4042 C59.4992,77.4042 80.7818,77.0898 80.7818,77.0898 C80.7818,77.0898 80.8253,86.9208 80.8253,86.9208 C80.8253,86.9208 46.1483,86.8132 46.1483,86.8132 C46.1483,86.8132 46.0695,32.0817 46.0695,32.0817 C46.0695,32.0817 57.7634,32.053 57.7634,32.053 C57.7634,32.053 57.7255,74.358 57.7255,74.358 C53.2809,73.5809 50.4568,75.0159 49.5798,78.3852 C48.9306,80.8794 50.972,83.7429 53.6041,84.0371 C57.0664,84.424 59.8191,82.5441 59.4992,77.4042 Z " fill="rgb(31,31,29)"/>
<path d="M295.936,71.0448 C296.513,72.9041 291.079,74.8845 293.462,79.8462 C294.385,81.1304 296.033,82.791 299.218,81.6705 C300.144,81.6028 302.101,79.0598 301.955,76.8518 C301.848,75.2284 300.438,73.8675 298.819,72.0628 C298.819,72.0628 306.131,47.1031 306.131,47.1031 C306.131,47.1031 317.335,47.122 317.335,47.122 C317.335,47.122 303.961,87.1197 303.961,87.1197 C303.961,87.1197 290.61,87.2122 290.61,87.2122 C290.61,87.2122 276.784,47.0753 276.784,47.0753 C276.784,47.0753 288.438,46.8807 288.438,46.8807 C288.438,46.8807 295.936,71.0448 295.936,71.0448 Z " fill="rgb(30,30,28)"/>
<path d="M125.359,108.913 C123.765,109.042 121.933,108.765 120.404,109.375 C118.258,110.231 117.27,112.298 117.753,114.421 C118.066,115.797 119.353,117.529 121.478,117.724 C123.202,117.882 125.946,116.628 126.044,114.048 C126.096,112.675 126.382,112.076 126.983,111.088 C129.227,111.09 131.234,111.07 134.483,110.876 C134.726,113.679 134.732,116.417 134.536,119.558 C134.536,119.558 125.808,119.818 125.808,119.818 C125.808,119.818 126.179,140.027 126.179,140.027 C126.229,142.735 130.527,143.827 133.466,142.498 C134.42,145.269 133.991,147.839 133.931,151.193 C130.493,152.41 126.822,152.321 123.291,151.708 C118.033,150.796 114.448,147.042 114.414,141.638 C114.414,141.638 114.274,119.583 114.274,119.583 C114.274,119.583 107.791,119.373 107.791,119.373 C107.791,119.373 107.949,110.963 107.949,110.963 C112.159,111.475 115.666,109.113 115.968,104.993 C115.968,104.993 116.403,99.0642 116.403,99.0642 C116.403,99.0642 125.552,99.0379 125.552,99.0379 C125.697,102.804 126.074,105.929 125.359,108.913 Z " fill="rgb(29,29,27)"/>
<path d="M57.9131,151.704 C57.9131,151.704 46.0512,151.834 46.0512,151.834 C46.0512,151.834 46.083,96.2423 46.083,96.2423 C46.083,96.2423 57.7961,96.275 57.7961,96.275 C57.7961,96.275 57.9131,151.704 57.9131,151.704 Z " fill="rgb(31,31,29)"/>
<path d="M153.245,151.27 C153.245,151.27 141.64,151.275 141.64,151.275 C141.64,151.275 141.639,111.001 141.639,111.001 C141.639,111.001 153.243,110.928 153.243,110.928 C153.243,110.928 153.245,151.27 153.245,151.27 Z " fill="rgb(29,29,27)"/>

<path d="M388.889,69.9028 C388.889,69.9028 366.199,69.9017 366.199,69.9017 C366.199,69.9017 366.301,59.053 366.301,59.053 C366.301,59.053 388.851,59.0713 388.851,59.0713 C388.851,59.0713 388.889,69.9028 388.889,69.9028 Z " fill="rgb(32,32,30)"/>



<path d="M259.26,41.9924 C259.26,41.9924 250.089,42.0384 250.089,42.0384 C250.089,42.0384 253.647,31.3294 253.647,31.3294 C253.647,31.3294 266.246,31.2144 266.246,31.2144 C266.246,31.2144 259.26,41.9924 259.26,41.9924 Z " fill="rgb(42,42,40)"/>
<path d="M345.161,41.9331 C345.161,41.9331 335.913,41.9555 335.913,41.9555 C335.913,41.9555 339.402,31.1405 339.402,31.1405 C339.402,31.1405 352.07,31.1698 352.07,31.1698 C352.07,31.1698 345.161,41.9331 345.161,41.9331 Z " fill="rgb(35,35,33)"/>
<path d="M153.595,105.863 C153.595,105.863 141.746,105.854 141.746,105.854 C141.746,105.854 141.623,95.9242 141.623,95.9242 C141.623,95.9242 153.466,95.856 153.466,95.856 C153.466,95.856 153.595,105.863 153.595,105.863 Z " fill="rgb(29,29,27)"/>
<path d="M360.519,138.783 C356.713,137.848 358.02,134.867 357.775,131.599 C357.775,131.599 355.126,138.828 355.126,138.828 C352.229,137.439 352.386,134.704 351.658,131.55 C350.5,133.397 351.049,135.559 350.823,137.827 C350.752,138.544 348.285,138.486 348.281,137.862 C348.281,137.862 348.201,127.089 348.201,127.089 C349.405,126.716 351.722,126.608 352.619,127.244 C352.619,127.244 354.525,133.503 354.525,133.503 C354.525,133.503 356.241,127.098 356.241,127.098 C356.241,127.098 360.797,126.999 360.797,126.999 C360.797,126.999 360.519,138.783 360.519,138.783 Z " fill="rgb(5,5,5)"/>
<path d="M325.534,122.1 C324.688,119.686 326.384,116.406 324.122,115.78 C324.027,118.736 324.096,120.774 321.589,123.116 C321.589,123.116 318.407,115.551 318.407,115.551 C317.951,117.399 318.061,118.713 318.33,119.462 C318.863,120.942 317.772,122.864 315.798,122.335 C315.798,122.335 315.564,111.177 315.564,111.177 C317.243,110.817 319.322,110.738 319.856,111.456 C320.344,112.113 320.723,113.686 320.914,115.303 C320.555,117.575 322.924,117.064 322.68,115.224 C322.94,113.458 323.297,112.092 323.887,111.417 C324.698,110.488 328.048,110.703 328.035,111.789 C328.035,111.789 327.914,121.94 327.914,121.94 C327.906,122.587 325.683,122.527 325.534,122.1 Z " fill="rgb(2,2,2)"/>
<path d="M388.805,137.706 C387.388,140.728 383.626,133.596 383.426,133.737 C381.928,134.79 382.837,137.584 382.326,138.022 C381.694,138.564 379.6,138.482 379.679,136.935 C379.824,134.062 378.978,129.726 380.195,127.184 C382.488,125.588 385.019,129.549 385.09,131.769 C386.205,133.571 387.398,132.608 386.785,131.164 C386.785,131.164 386.623,128.523 386.623,128.523 C386.561,127.515 387.804,126.156 389.296,126.974 C389.339,129.84 390.344,134.425 388.805,137.706 Z " fill="rgb(2,2,2)"/>
<path d="M303.976,137.828 C301.649,138.425 299.379,138.343 297.082,138.046 C297.082,138.046 297.09,127.033 297.09,127.033 C299.672,126.795 302.317,126.515 304.602,127.457 C306.767,128.35 307.526,130.603 307.538,132.498 C307.551,134.527 306.55,137.168 303.976,137.828 Z M300.221,135.236 C300.566,136.357 303.649,135.565 304.158,134.522 C304.841,133.124 304.494,132.015 304.245,131.072 C303.903,129.775 301.008,128.64 300.388,129.907 C299.68,131.349 299.725,133.621 300.221,135.236 Z " fill="rgb(5,5,5)"/>
<path d="M351.909,114.872 C350.037,115.711 348.448,113.863 346.847,113.476 C344.491,112.907 343.502,116.074 343.875,117.513 C344.364,119.399 345.739,120.564 347.713,119.887 C348.751,119.531 348.947,117.967 348.438,118.161 C348.056,118.307 346.587,118.204 346.714,116.486 C348.494,115.98 350.309,116.138 351.832,116.297 C351.733,118.048 352.713,121.213 350.711,122.061 C345.918,123.136 342.605,122.39 341.358,119.018 C340.155,115.764 341.44,112.276 344.566,111.142 C347.74,109.991 351.022,111.645 351.909,114.872 Z " fill="rgb(2,2,2)"/>
<path d="M341.943,134.148 C339.582,133.304 339.349,136.84 341.85,136.126 C343.605,135.624 345.832,134.913 346.783,137.573 C343.463,138.882 340.544,138.17 337.024,138.151 C337.024,138.151 337.023,126.933 337.023,126.933 C340.388,126.908 343.197,126.511 346.024,127.267 C345.966,127.578 346.036,128.529 346.085,128.652 C344.382,129.756 342.369,129.13 340.162,129.325 C339.657,129.37 339.868,131.144 340.521,131.108 C340.521,131.108 343.045,130.967 343.045,130.967 C344.167,130.904 345.418,130.98 345.608,131.634 C345.942,132.787 345.294,133.166 345.119,133.726 C344.72,135.001 343.654,134.843 341.943,134.148 Z " fill="rgb(3,3,3)"/>
<path d="M331.369,127.185 C335.374,128.235 335.912,132.656 334.699,135.373 C333.325,138.452 329.668,138.73 325.3,138.118 C324.38,134.809 324.915,131.146 324.896,127.001 C327.05,126.83 329.054,126.577 331.369,127.185 Z M328.408,135.422 C329.009,136.399 331.597,135.274 331.969,134.37 C332.367,133.401 332.301,131.14 331.563,130.25 C330.952,129.514 328.468,128.895 328.094,129.801 C327.533,131.315 327.31,133.638 328.408,135.422 Z " fill="rgb(2,2,2)"/>
<path d="M315.324,133.563 C315.324,133.563 312.912,133.457 312.912,133.457 C312.373,133.433 311.937,134.869 312.299,135.355 C312.928,136.199 315.752,135.225 318.326,135.863 C318.918,136.01 318.663,138.07 318.06,138.07 C318.06,138.07 309.29,138.071 309.29,138.071 C309.29,138.071 309.257,126.978 309.257,126.978 C312.43,126.863 315.4,126.541 318.302,127.324 C318.266,127.515 318.248,128.311 318.315,128.68 C318.315,128.68 311.737,129.939 311.737,129.939 C313.939,132.49 319.662,130.025 317.593,133.133 C317.327,133.532 316.601,133.619 315.324,133.563 Z " fill="rgb(1,1,1)"/>

<path d="M360.525,117.751 C360.525,117.751 357.512,117.653 357.512,117.653 C356.657,117.625 356.489,119.692 357.372,119.758 C359.325,119.902 362.053,118.711 363.802,121.431 C360.332,123.052 357.496,122.253 353.967,122.209 C353.967,122.209 353.949,111.128 353.949,111.128 C357.456,111.008 360.373,110.47 363.832,111.755 C361.275,114.5 359,113.164 356.566,113.387 C357.313,117.056 362.746,114.032 362.452,116.503 C362.381,117.097 362.006,117.799 360.525,117.751 Z " fill="rgb(2,2,2)"/>
<path d="M340.644,121.709 C337.469,123.8 337.333,118.705 332.993,120.7 C332.665,122.054 332.018,122.098 331.49,122.279 C330.608,122.582 329.411,122.121 329.352,121.432 C329.352,121.432 333.395,111.38 333.395,111.38 C333.662,110.715 336.354,110.7 336.617,111.374 C336.617,111.374 340.644,121.709 340.644,121.709 Z M333.936,116.652 C333.765,118.186 335.116,118.247 335.506,118.012 C336.047,117.686 336.248,117.082 336.008,116.496 C335.815,116.026 334.672,115.319 333.936,116.652 Z " fill="rgb(6,6,6)"/>
<path d="M372.551,138.949 C369.96,136.887 367.915,135.015 365.654,136.789 C365.036,137.274 364.623,138.748 362.26,138.155 C362.26,138.155 365.775,127.74 365.775,127.74 C367.103,123.804 372.16,129.631 372.551,138.949 Z M368.673,133.937 C368.875,133.041 367.826,130.963 367.19,131.41 C365.603,133.351 366.249,134.69 368.673,133.937 Z " fill="rgb(4,4,4)"/>

<path d="M300.155,119.932 C302.145,119.6 304.203,119.064 305.932,121.302 C302.947,122.912 300.156,122.454 297.07,122.031 C297.07,122.031 297.06,111.114 297.06,111.114 C298.138,110.927 298.846,110.921 300.005,111.091 C300.005,111.091 300.155,119.932 300.155,119.932 Z " fill="rgb(5,5,5)"/>
<path d="M312.995,122.877 C311.85,123.088 311.15,123.088 310.005,122.877 C310.005,122.877 310.005,111.123 310.005,111.123 C311.15,110.912 311.85,110.912 312.995,111.123 C312.995,111.123 312.995,122.877 312.995,122.877 Z " fill="rgb(2,2,2)"/>
<path d="M376.995,138.878 C375.842,139.081 375.178,139.098 373.917,138.87 C373.917,138.87 373.999,127.123 373.999,127.123 C375.156,126.911 375.848,126.913 376.995,127.123 C376.995,127.123 376.995,138.878 376.995,138.878 Z " fill="rgb(1,1,1)"/>

<path d="M306.259,116.444 C305.78,113.753 305.316,112.524 305.562,110.79 C308.483,110.613 308.193,112.245 308.116,113.503 C308.029,114.913 307.685,115.879 306.259,116.444 Z " fill="rgb(2,2,2)"/>











</svg>