<svg xmlns="http://www.w3.org/2000/svg" width="400" height="126">
<defs>
</defs>

<path d="M71.874,126 C71.874,126 71.0806,125.984 71.0806,125.984 C71.0806,125.984 70.5662,118.519 70.5662,118.519 C70.5662,118.519 50.8527,117.47 50.8527,117.47 C50.8527,117.47 102.052,110.267 102.052,110.267 C107.004,109.571 112.491,106.836 113.492,101.486 C114.56,95.7831 114.137,89.2618 113.661,83.0689 C113.325,78.7071 108.043,75.7936 104.007,76.2911 C104.007,76.2911 85.1778,78.6122 85.1778,78.6122 C85.1778,78.6122 85.1938,109.601 85.1938,109.601 C80.6398,109.25 76.1453,109.035 70.8933,109 C70.8933,109 70.8047,98.1603 70.8047,98.1603 C66.5451,97.8171 62.7549,98.6136 58.8902,97.4117 C62.9135,96.8983 66.1109,96.9409 70.683,95.7948 C70.683,95.7948 70.6062,78.7917 70.6062,78.7917 C70.6062,78.7917 26.0168,84.6625 26.0168,84.6625 C25.6278,82.9784 25.7189,81.1312 25.761,79.0905 C25.761,79.0905 3.97767,77.3542 3.97767,77.3542 C3.97767,77.3542 380.728,27.8671 380.728,27.8671 C381.205,31.0233 381.196,33.6706 380.644,36.4866 C380.644,36.4866 365.978,37.9921 365.978,37.9921 C364.132,38.1815 362.701,37.796 361.958,40.0572 C361.958,40.0572 380.989,40.0406 380.989,40.0406 C380.989,40.0406 381.02,59.9833 381.02,59.9833 C382.803,59.941 384.249,59.3915 386.814,60.4948 C386.814,60.4948 360.003,66.2068 360.003,66.2068 C354.982,67.2766 350.382,68.2124 345.173,67.0963 C345.173,67.0963 343.823,77.5777 343.823,77.5777 C354.552,78.8555 366.548,77.4957 368.411,68.6605 C368.411,68.6605 381.02,67.3271 381.02,67.3271 C381.02,67.3271 380.851,84.9969 380.851,84.9969 C380.851,84.9969 71.874,126 71.874,126 Z M337.936,38.1248 C332.466,39.7167 327.757,38.2872 326.526,41.1705 C325.897,42.645 325.479,44.1977 326.016,45.889 C332.263,44.1729 334.323,46.8406 337.936,38.1248 Z M355.638,53.6542 C359.131,52.0056 362.537,51.2947 366.52,52.8406 C366.52,52.8406 368.036,42.1044 368.036,42.1044 C358.377,41.4304 349.099,42.1618 345.254,49.9081 C343.349,53.7475 343.091,59.9615 346.296,62.7078 C346.296,62.7078 368.619,60.9895 368.619,60.9895 C367.541,54.6744 360.798,56.4571 355.638,53.6542 Z M341.906,66.779 C341.906,66.779 341.855,57.0303 341.855,57.0303 C341.855,57.0303 331.682,58.5581 331.682,58.5581 C329.535,55.0952 335.336,56.8877 342.117,54.7674 C342.117,54.7674 342.08,44.7932 342.08,44.7932 C342.08,44.7932 318.11,48.0199 318.11,48.0199 C318.11,48.0199 318.131,82.0463 318.131,82.0463 C318.131,82.0463 342.821,78.7668 342.821,78.7668 C342.821,78.7668 342.609,68.6562 342.609,68.6562 C342.609,68.6562 331.03,69.8447 331.03,69.8447 C331.03,69.8447 330.983,68.3894 330.983,68.3894 C334.403,67.5974 337.77,66.6837 341.906,66.779 Z M297.797,84.5519 C297.868,79.8867 297.274,76.9411 298.227,72.7005 C298.227,72.7005 303.146,84.13 303.146,84.13 C303.146,84.13 314.959,82.6901 314.959,82.6901 C314.959,82.6901 315.038,48.222 315.038,48.222 C315.038,48.222 303.029,50.087 303.029,50.087 C303.029,50.087 303.056,60.911 303.056,60.911 C304.449,60.7577 305.738,60.3497 307.206,61.5959 C307.206,61.5959 285.262,66.2544 285.262,66.2544 C285.262,66.2544 285.35,86.1386 285.35,86.1386 C285.35,86.1386 297.797,84.5519 297.797,84.5519 Z M301.881,60.7376 C301.881,60.7376 297.399,50.852 297.399,50.852 C297.399,50.852 285.273,52.2411 285.273,52.2411 C285.273,52.2411 285.242,61.9538 285.242,61.9538 C290.89,62.3589 296.071,61.3215 301.881,60.7376 Z M282.011,62.8073 C282.011,62.8073 282.079,53.0198 282.079,53.0198 C282.079,53.0198 269.854,54.2683 269.854,54.2683 C269.854,54.2683 269.808,63.7408 269.808,63.7408 C274.372,62.6948 277.725,63.0184 282.011,62.8073 Z M242.373,78.851 C242.373,78.851 244.897,87.0981 244.897,87.0981 C244.897,87.0981 252.691,85.7905 252.691,85.7905 C252.691,85.7905 254.617,77.8525 254.617,77.8525 C254.617,77.8525 255.384,90.1678 255.384,90.1678 C255.384,90.1678 266.652,88.6157 266.652,88.6157 C266.652,88.6157 266.62,54.7991 266.62,54.7991 C266.62,54.7991 251.23,56.7435 251.23,56.7435 C251.23,56.7435 248.476,70.3228 248.476,70.3228 C248.476,70.3228 245.81,57.3637 245.81,57.3637 C245.81,57.3637 230.987,59.2984 230.987,59.2984 C230.987,59.2984 231.175,93.2787 231.175,93.2787 C235.648,92.962 238.456,92.6374 242.012,91.7451 C242.012,91.7451 242.373,78.851 242.373,78.851 Z M210.62,95.8303 C210.62,95.8303 211.244,87.7123 211.244,87.7123 C211.244,87.7123 214.586,95.6784 214.586,95.6784 C214.586,95.6784 227.955,93.7343 227.955,93.7343 C227.955,93.7343 222.698,83.7877 222.698,83.7877 C226.771,79.507 227.616,73.7031 226.066,67.8824 C224.995,63.8586 220.851,61.1536 216.608,61.6101 C216.608,61.6101 198.03,63.609 198.03,63.609 C198.03,63.609 198.011,74.9321 198.011,74.9321 C201.687,74.204 204.475,73.327 208.118,74.5048 C208.118,74.5048 198.063,76.3934 198.063,76.3934 C198.063,76.3934 197.996,97.8401 197.996,97.8401 C197.996,97.8401 210.62,95.8303 210.62,95.8303 Z M194.936,74.63 C194.936,74.63 194.957,64.0067 194.957,64.0067 C194.957,64.0067 171.096,67.2645 171.096,67.2645 C171.014,70.6213 170.657,73.9992 171.398,77.1898 C171.398,77.1898 194.936,74.63 194.936,74.63 Z M135.742,64.9768 C131.456,65.2462 127.767,65.5282 125.293,66.709 C123.867,68.1926 123.536,71.462 124.648,71.8884 C129.992,72.4286 134.827,70.2144 135.742,64.9768 Z M149.341,92.719 C149.341,92.719 161.964,90.7995 161.964,90.7995 C161.964,90.7995 162.138,78.2235 162.138,78.2235 C162.138,78.2235 168.928,77.7899 168.928,77.7899 C168.928,77.7899 168.745,67.4572 168.745,67.4572 C168.745,67.4572 142.087,71.1681 142.087,71.1681 C142.087,71.1681 142.071,80.9085 142.071,80.9085 C144.613,81.1662 146.509,80.7728 149.085,79.8439 C149.085,79.8439 149.341,92.719 149.341,92.719 Z M282.124,86.7152 C282.124,86.7152 282.089,66.8663 282.089,66.8663 C282.089,66.8663 269.604,69.5732 269.604,69.5732 C269.604,69.5732 269.642,88.0212 269.642,88.0212 C269.642,88.0212 282.124,86.7152 282.124,86.7152 Z M140.428,92.3744 C140.428,92.3744 139.972,84.006 139.972,84.006 C139.972,84.006 129.01,84.7833 129.01,84.7833 C129.01,84.7833 128.975,83.3077 128.975,83.3077 C128.975,83.3077 140.568,81.6004 140.568,81.6004 C140.568,81.6004 140.533,71.2259 140.533,71.2259 C140.533,71.2259 116.427,74.4131 116.427,74.4131 C116.055,86.0315 115.907,97.075 116.461,108.392 C116.461,108.392 140.95,105.276 140.95,105.276 C140.95,105.276 140.961,94.9933 140.961,94.9933 C140.961,94.9933 130.585,96.1366 130.585,96.1366 C125.462,93.1417 132.453,95.2604 140.428,92.3744 Z M195.605,98.0563 C195.605,98.0563 195.539,87.7289 195.539,87.7289 C190.865,88.1534 187.663,89.732 183.995,88.6654 C183.988,88.7137 184.04,88.1153 183.967,87.2777 C183.967,87.2777 194.517,85.8558 194.517,85.8558 C194.882,83.3712 194.982,80.5495 194.448,77.2425 C194.448,77.2425 171.068,82.0171 171.068,82.0171 C171.068,82.0171 171.147,89.739 171.147,89.739 C173.629,89.0752 173.429,91.8712 171.145,91.1521 C170.969,94.7755 170.675,97.9037 171.394,101.281 C171.394,101.281 195.605,98.0563 195.605,98.0563 Z M161.985,102.778 C161.985,102.778 162.084,94.0581 162.084,94.0581 C162.084,94.0581 149.209,98.175 149.209,98.175 C149.11,100.411 148.935,102.273 149.507,104.238 C149.507,104.238 161.985,102.778 161.985,102.778 Z " fill="rgb(0,0,0)"/>
<path d="M137.977,0.016332 C138.314,2.43898 138.199,4.8904 138.231,7.90113 C138.231,7.90113 153.163,8.55817 153.163,8.55817 C153.163,8.55817 36.103,23.9891 36.103,23.9891 C36.103,23.9891 36.0055,37.805 36.0055,37.805 C39.4521,38.3501 42.1948,38.9229 45.5547,38.5903 C45.5547,38.5903 45.7421,30.944 45.7421,30.944 C50.0368,31.3819 52.9319,30.3204 57.1886,29.7774 C57.3671,33.3049 56.4027,36.3138 57.958,39.7123 C57.958,39.7123 25.7369,43.8788 25.7369,43.8788 C25.7369,43.8788 25.7887,15.0718 25.7887,15.0718 C25.7887,15.0718 136.306,0.518327 136.306,0.518327 C135.512,0.161219 137.274,0.546406 137.977,0.016332 Z " fill="rgb(0,0,0)"/>
<path d="M120.242,43.4043 C120.803,50.9323 116.845,55.1988 110.337,56.5564 C105.857,57.491 100.953,57.4203 95.9501,56.9331 C95.9501,56.9331 97.2941,47.7491 97.2941,47.7491 C101.37,48.08 105.672,48.8208 109.388,46.1832 C109.388,46.1832 98.4578,42.5406 98.4578,42.5406 C94.6284,39.2978 95.5462,33.3977 97.5952,29.4436 C101.008,22.8566 111.044,21.2237 119.216,22.433 C119.216,22.433 117.539,32.2717 117.539,32.2717 C113.386,31.8136 110.043,31.3583 106.744,33.3257 C111.93,37.8654 119.483,33.2106 120.242,43.4043 Z " fill="rgb(0,0,0)"/>
<path d="M83.286,50.1473 C83.286,50.1473 93.9411,48.8879 93.9411,48.8879 C93.9411,48.8879 93.9559,58.2913 93.9559,58.2913 C93.9559,58.2913 70.0481,61.3826 70.0481,61.3826 C70.0481,61.3826 69.9977,43.2234 69.9977,43.2234 C77.7829,40.7383 84.8501,37.8461 92.8905,37.7792 C92.8905,37.7792 92.979,45.8659 92.979,45.8659 C89.4431,46.6903 86.5655,47.1261 82.9485,47.2577 C81.5219,47.3096 81.3411,50.3772 83.286,50.1473 Z " fill="rgb(0,0,0)"/>
<path d="M128.014,52.0268 C128.014,52.0268 127.952,17.4869 127.952,17.4869 C127.952,17.4869 138.19,14.048 138.19,14.048 C138.19,14.048 138.205,52.5723 138.205,52.5723 C134.855,52.1933 131.694,52.1032 128.014,52.0268 Z " fill="rgb(0,0,0)"/>
<path d="M67.5743,61.937 C67.5743,61.937 45.6326,64.591 45.6326,64.591 C45.6326,64.591 45.5877,50.9057 45.5877,50.9057 C45.5877,50.9057 56.9894,47.1178 56.9894,47.1178 C56.9894,47.1178 57.1637,52.9456 57.1637,52.9456 C60.6381,53.2386 63.364,52.8136 67.5609,51.6221 C67.5609,51.6221 67.5743,61.937 67.5743,61.937 Z " fill="rgb(0,0,0)"/>
<path d="M93.3184,34.7497 C93.3184,34.7497 70.2722,37.7932 70.2722,37.7932 C70.2722,37.7932 70.0538,28.1941 70.0538,28.1941 C70.0538,28.1941 93.6083,25.0845 93.6083,25.0845 C93.1164,28.2002 93.3498,30.7167 93.3184,34.7497 Z " fill="rgb(0,0,0)"/>
<path d="M35.9969,68.1936 C35.9969,68.1936 25.7378,67.9317 25.7378,67.9317 C25.7378,67.9317 25.7351,51.0205 25.7351,51.0205 C25.7351,51.0205 35.9594,47.7965 35.9594,47.7965 C35.9594,47.7965 35.9969,68.1936 35.9969,68.1936 Z " fill="rgb(0,0,0)"/>
<path d="M100.947,100.516 C100.942,101.081 98.5855,101.448 98.05,100.974 C98.05,100.974 98.003,86.1368 98.003,86.1368 C99.1353,85.9096 99.8614,85.8995 101.069,86.132 C101.069,86.132 100.947,100.516 100.947,100.516 Z " fill="rgb(0,0,0)"/>
<path d="M395.971,57.9542 C397.242,58.0804 396.857,59.4496 395.756,59.1509 C393.502,59.5061 394.101,57.1137 395.971,57.9542 Z " fill="rgb(211,211,211)"/>















<path d="M213.208,71.5672 C214.415,72.4968 214.306,76.6254 213.975,77.4801 C213.729,78.1156 212.144,78.4733 211.502,78.2349 C210.991,78.0455 209.847,73.637 210.899,72.3362 C211.905,71.0917 212.643,71.1327 213.208,71.5672 Z " fill="rgb(0,0,0)"/>
<path d="M175.971,88.9542 C177.242,89.0804 176.857,90.4496 175.756,90.1509 C173.502,90.5061 174.101,88.1137 175.971,88.9542 Z " fill="rgb(23,23,23)"/>
</svg>