<?xml version="1.0" encoding="UTF-8"?>
<svg id="Calque_2" data-name="Calque 2" xmlns="http://www.w3.org/2000/svg" viewBox="0 0 817.06 224.16">
  <defs>
    <style>
      .cls-1 {
        fill: #010101;
      }
    </style>
  </defs>
  <g id="Calque_1-2" data-name="Calque 1">
    <g>
      <polygon class="cls-1" points="210.21 0 180.91 73.42 158.03 0 157.96 0 112.3 0 112.23 0 89.35 73.42 60.05 0 0 0 0 158.67 45.73 158.67 45.73 78.73 69.29 137.77 115.03 137.77 135.13 73.27 155.23 137.77 200.97 137.77 224.53 78.73 224.53 158.67 270.26 158.67 270.26 0 210.21 0"/>
      <g>
        <path class="cls-1" d="M351.72,128.55h-.79c-5.01,20.58-16.88,32.71-37.99,32.71s-37.2-12.13-37.2-37.72c0-22.69,13.45-37.46,48.28-37.46h27.7v-5.54c0-9.5-4.75-14.25-14.51-14.25-7.91,0-13.98,2.9-15.83,13.72l-41.94-5.8c2.64-24.27,16.88-44.85,59.88-44.85,40.63,0,57.24,18.99,57.24,50.91v78.35h-44.85v-30.07ZM351.72,109.03v-3.43h-20.05c-7.39,0-12.13,4.48-12.13,9.76,0,6.07,3.69,10.29,14.51,10.29s17.67-6.86,17.67-16.62Z"/>
        <path class="cls-1" d="M450.91,158.67h-44.85V32.57h44.85v35.88h.26c6.6-31.39,20.58-39.83,39.57-39.83,23.74,0,35.61,15.83,35.61,43.26v86.79h-44.85v-73.34c0-10.29-5.01-16.36-15.04-16.36s-15.56,6.07-15.56,16.36v73.34Z"/>
        <path class="cls-1" d="M531.1,121.16l41.68-8.18c2.9,12.13,9.23,17.15,19.26,17.15,7.91,0,11.87-2.11,12.13-7.12,0-4.75-3.16-7.65-22.95-12.13-36.67-8.44-48.8-20.58-48.8-41.68,0-25.59,18.47-40.63,56.19-40.63s54.34,15.3,58.3,37.72l-42.74,9.5c-1.85-10.29-6.33-15.56-15.83-15.56-7.39,0-11.34,2.37-11.34,6.86,0,4.75.79,8.18,24.8,13.19,37.46,7.91,46.43,22.42,46.43,40.89,0,25.59-17.15,41.42-57.24,41.42-44.85,0-57.25-20.05-59.88-41.42Z"/>
        <path class="cls-1" d="M758.24,134.4h-57.77l-8.18,24.27h-48.8L702.31.39h56.19l58.56,158.28h-50.91l-7.91-24.27ZM713.13,96.41h32.71l-6.6-20.05c-3.16-9.76-6.33-19.52-9.23-29.02h-.53c-3.17,9.5-6.07,19.26-9.5,29.02l-6.86,20.05Z"/>
      </g>
      <g>
        <path class="cls-1" d="M0,181.46h11.68l7.48,22.2c.94,2.92,2.28,7.48,3.39,10.92h.06c1.23-3.45,2.86-8.59,3.8-11.33l7.42-21.79h11.33v41.77h-7.36v-21.26c0-4.44.12-10.98.12-14.31h-.06c-.58,2.16-2.57,8-4.44,13.84l-7.3,21.73h-7.3l-8.76-26.11c-1.34-4.03-1.99-6.95-2.86-9.76h-.06c.06,3.45.12,8.18.12,14.02v21.85H0v-41.77Z"/>
        <path class="cls-1" d="M53.33,202.14c.29-5.9,5.14-10.57,13.14-10.57,7.48,0,12.68,3.1,12.68,13.55v8.59c0,4.27.23,7.24.7,9.52h-6.54c-.18-.88-.35-2.28-.35-4.09-1.69,2.51-5.2,4.67-10.16,4.67-6.37,0-10.92-3.33-10.92-9.11,0-6.37,6.84-8.82,13.32-9.76,2.63-.41,5.02-.64,7.07-.82-.18-5.14-1.93-7.01-5.96-7.01s-5.78,2.04-6.19,5.02h-6.78ZM72.37,209.09l-1.58.18c-7.77.76-11.33,2.05-11.33,5.26,0,2.8,2.04,4.21,5.32,4.21,5.14,0,7.54-3.15,7.54-8.35,0-.06,0-.64.06-1.29Z"/>
        <path class="cls-1" d="M87.09,181.46h7.3v6.66h-7.3v-6.66ZM94.33,192.56v30.67h-7.13v-30.67h7.13Z"/>
        <path class="cls-1" d="M107.06,213.53c.88,3.04,3.15,4.91,6.66,4.91,3.04,0,5.43-1.46,5.43-3.8,0-2.16-2.34-2.74-5.43-3.62l-3.39-.94c-4.97-1.4-8.94-3.39-8.94-9.05s4.97-9.46,11.8-9.46,11.63,3.5,12.09,9.58h-6.31c-.88-2.63-2.86-3.91-5.96-3.91s-4.73,1.52-4.73,3.39c0,2.05,1.64,2.63,4.73,3.5l3.39.88c6.31,1.75,9.4,3.8,9.4,9.06,0,6.07-5.08,10.11-12.21,10.11-7.65,0-12.09-3.56-13.26-10.63h6.72Z"/>
        <path class="cls-1" d="M162.38,207.92c0,9.52-6.25,16.24-16.18,16.24s-15.89-6.89-15.89-16.24,6.37-16.42,16.01-16.42,16.07,6.78,16.07,16.42ZM137.61,207.86c0,6.31,3.21,10.34,8.59,10.34s8.65-4.03,8.65-10.34-3.27-10.4-8.65-10.4-8.59,4.32-8.59,10.4Z"/>
        <path class="cls-1" d="M175.69,194.43c0,.64,0,1.29-.06,1.93q0,.06.06.06c1.87-2.81,4.85-4.85,9.58-4.85,7.07,0,11.1,4.67,11.1,12.62v19.04h-7.13v-15.83c0-6.02-1.4-9.87-6.25-9.87s-6.95,3.8-6.95,8.59v17.12h-7.13v-26.05c0-1.58,0-3.1-.06-4.67h6.84v1.93Z"/>
        <path class="cls-1" d="M241.98,223.23v-4.32c-1.81,2.75-5.26,5.02-10.57,5.02-8.41,0-14.14-6.54-14.14-16.12s5.55-16.24,14.31-16.24c4.85,0,8.35,2.39,10.05,4.91-.06-2.16-.06-3.97-.06-6.08v-8.94h7.13v41.77h-6.72ZM224.58,207.92c0,5.84,3.15,10.22,8.47,10.22s8.88-4.44,8.88-10.46-3.68-10.22-8.82-10.22-8.53,4.61-8.53,10.46Z"/>
        <path class="cls-1" d="M262.31,209.62c.47,5.02,3.85,8.65,8.82,8.65,3.51,0,5.67-1.46,7.01-3.8h7.19c-1.87,5.61-6.95,9.7-14.37,9.7-9.58,0-15.77-6.78-15.77-16.36s6.31-16.3,15.66-16.3,15.01,7.3,15.01,16.24c0,1.11-.06,1.75-.06,1.93l-23.48-.06ZM278.72,204.53c-.47-4.21-3.33-7.48-7.95-7.48s-7.59,2.57-8.24,7.48h16.18Z"/>
        <path class="cls-1" d="M296.36,213.53c.88,3.04,3.15,4.91,6.66,4.91,3.04,0,5.43-1.46,5.43-3.8,0-2.16-2.34-2.74-5.43-3.62l-3.39-.94c-4.97-1.4-8.94-3.39-8.94-9.05s4.97-9.46,11.8-9.46,11.63,3.5,12.09,9.58h-6.31c-.88-2.63-2.86-3.91-5.96-3.91s-4.73,1.52-4.73,3.39c0,2.05,1.64,2.63,4.73,3.5l3.39.88c6.31,1.75,9.4,3.8,9.4,9.06,0,6.07-5.08,10.11-12.21,10.11-7.65,0-12.09-3.56-13.26-10.63h6.72Z"/>
        <path class="cls-1" d="M337.07,181.46h11.68l7.48,22.2c.94,2.92,2.28,7.48,3.39,10.92h.06c1.23-3.45,2.86-8.59,3.8-11.33l7.42-21.79h11.33v41.77h-7.36v-21.26c0-4.44.12-10.98.12-14.31h-.06c-.58,2.16-2.57,8-4.44,13.84l-7.3,21.73h-7.3l-8.76-26.11c-1.34-4.03-1.99-6.95-2.86-9.76h-.06c.06,3.45.12,8.18.12,14.02v21.85h-7.24v-41.77Z"/>
        <path class="cls-1" d="M421.18,207.92c0,9.52-6.25,16.24-16.18,16.24s-15.89-6.89-15.89-16.24,6.37-16.42,16.01-16.42,16.07,6.78,16.07,16.42ZM396.41,207.86c0,6.31,3.21,10.34,8.59,10.34s8.65-4.03,8.65-10.34-3.27-10.4-8.65-10.4-8.59,4.32-8.59,10.4Z"/>
        <path class="cls-1" d="M434.49,194.43c0,.64,0,1.29-.06,1.93q0,.06.06.06c1.87-2.81,4.85-4.85,9.58-4.85,7.07,0,11.1,4.67,11.1,12.62v19.04h-7.13v-15.83c0-6.02-1.4-9.87-6.25-9.87s-6.95,3.8-6.95,8.59v17.12h-7.13v-26.05c0-1.58,0-3.1-.06-4.67h6.84v1.93Z"/>
        <path class="cls-1" d="M486.13,223.23v-4.32c-1.81,2.75-5.26,5.02-10.57,5.02-8.41,0-14.14-6.54-14.14-16.12s5.55-16.24,14.31-16.24c4.85,0,8.35,2.39,10.05,4.91-.06-2.16-.06-3.97-.06-6.08v-8.94h7.13v41.77h-6.72ZM468.72,207.92c0,5.84,3.15,10.22,8.47,10.22s8.88-4.44,8.88-10.46-3.68-10.22-8.82-10.22-8.53,4.61-8.53,10.46Z"/>
        <path class="cls-1" d="M506.45,209.62c.47,5.02,3.85,8.65,8.82,8.65,3.51,0,5.67-1.46,7.01-3.8h7.19c-1.87,5.61-6.95,9.7-14.37,9.7-9.58,0-15.77-6.78-15.77-16.36s6.31-16.3,15.66-16.3,15.01,7.3,15.01,16.24c0,1.11-.06,1.75-.06,1.93l-23.48-.06ZM522.87,204.53c-.47-4.21-3.33-7.48-7.95-7.48s-7.59,2.57-8.24,7.48h16.18Z"/>
        <path class="cls-1" d="M540.5,213.53c.88,3.04,3.15,4.91,6.66,4.91,3.04,0,5.43-1.46,5.43-3.8,0-2.16-2.34-2.74-5.43-3.62l-3.39-.94c-4.97-1.4-8.94-3.39-8.94-9.05s4.97-9.46,11.8-9.46,11.63,3.5,12.09,9.58h-6.31c-.88-2.63-2.86-3.91-5.96-3.91s-4.73,1.52-4.73,3.39c0,2.05,1.64,2.63,4.73,3.5l3.39.88c6.31,1.75,9.4,3.8,9.4,9.06,0,6.07-5.08,10.11-12.21,10.11-7.65,0-12.09-3.56-13.26-10.63h6.72Z"/>
        <path class="cls-1" d="M574.03,223.23c3.27-7.54,6.02-14.95,17.23-41.77h8.06l16.94,41.77h-7.71c-1.64-4.03-3.15-8-4.73-12.03h-17.53l-4.67,12.03h-7.59ZM595.06,188.18c-1.81,4.61-3.45,9.29-5.26,13.79l-1.05,2.86h12.62c-.12-.35-.23-.7-.41-1.05l-.7-1.81-2.05-5.37c-1.11-2.98-2.34-6.37-3.04-8.41h-.12Z"/>
        <path class="cls-1" d="M621.28,197.87h-4.03v-5.32h4.03v-2.1c0-5.61,3.85-9.52,9.93-9.52.94,0,1.4,0,2.28.18v5.72c-.47-.06-.94-.12-1.34-.12-2.28,0-3.74,1.11-3.74,3.45v2.39h5.08v5.32h-5.08v25.35h-7.13v-25.35Z"/>
        <path class="cls-1" d="M645.4,192.5v2.1c0,.7,0,1.4-.06,2.04,1.11-3.1,3.91-4.85,7.42-4.85.76,0,1.29.06,1.69.12v6.78c-.53-.18-1.34-.23-2.05-.23-5.61,0-6.54,3.97-6.54,10.28v14.49h-7.13v-25.18c0-1.93,0-3.68-.06-5.55h6.72Z"/>
        <path class="cls-1" d="M659.77,181.46h7.3v6.66h-7.3v-6.66ZM667.01,192.56v30.67h-7.13v-30.67h7.13Z"/>
        <path class="cls-1" d="M703.58,213.41c-1.75,6.13-6.54,10.75-14.43,10.75-9.7,0-15.66-6.89-15.66-16.3s6.25-16.36,15.77-16.36c7.95,0,12.97,4.73,14.37,11.22h-7.42c-1.23-3.27-3.33-5.26-7.07-5.26-5.14,0-8.35,4.32-8.35,10.28,0,6.31,3.21,10.52,8.65,10.52,3.51,0,5.96-1.87,7.13-4.85h7.01Z"/>
        <path class="cls-1" d="M709.01,202.14c.29-5.9,5.14-10.57,13.14-10.57,7.48,0,12.68,3.1,12.68,13.55v8.59c0,4.27.23,7.24.7,9.52h-6.54c-.18-.88-.35-2.28-.35-4.09-1.69,2.51-5.2,4.67-10.16,4.67-6.37,0-10.92-3.33-10.92-9.11,0-6.37,6.83-8.82,13.32-9.76,2.63-.41,5.02-.64,7.07-.82-.18-5.14-1.93-7.01-5.96-7.01s-5.78,2.04-6.19,5.02h-6.78ZM728.05,209.09l-1.58.18c-7.77.76-11.33,2.05-11.33,5.26,0,2.8,2.04,4.21,5.32,4.21,5.14,0,7.54-3.15,7.54-8.35,0-.06,0-.64.06-1.29Z"/>
        <path class="cls-1" d="M742.76,181.46h7.3v6.66h-7.3v-6.66ZM750.01,192.56v30.67h-7.13v-30.67h7.13Z"/>
        <path class="cls-1" d="M765.19,194.43c0,.64,0,1.29-.06,1.93q0,.06.06.06c1.87-2.81,4.85-4.85,9.58-4.85,7.07,0,11.1,4.67,11.1,12.62v19.04h-7.13v-15.83c0-6.02-1.4-9.87-6.25-9.87s-6.95,3.8-6.95,8.59v17.12h-7.13v-26.05c0-1.58,0-3.1-.06-4.67h6.84v1.93Z"/>
        <path class="cls-1" d="M798.31,213.53c.88,3.04,3.15,4.91,6.66,4.91,3.04,0,5.43-1.46,5.43-3.8,0-2.16-2.34-2.74-5.43-3.62l-3.39-.94c-4.97-1.4-8.94-3.39-8.94-9.05s4.97-9.46,11.8-9.46,11.63,3.5,12.09,9.58h-6.31c-.88-2.63-2.86-3.91-5.96-3.91s-4.73,1.52-4.73,3.39c0,2.05,1.64,2.63,4.73,3.5l3.39.88c6.31,1.75,9.4,3.8,9.4,9.06,0,6.07-5.08,10.11-12.21,10.11-7.65,0-12.09-3.56-13.26-10.63h6.72Z"/>
      </g>
    </g>
  </g>
</svg>